<?xml version="1.0"?>

<svg fill="#000000" width="800px" height="800px" viewBox="0 -1 34 34" version="1.1" xmlns="http://www.w3.org/2000/svg">
<title>soundcloud</title>
<path d="M28.125 15.563c-0.25-2.156-1.125-3.625-2.406-4.781-1.188-1.094-2.906-2.031-5.25-1.906-0.531 0.031-1.031 0.094-1.531 0.219-0.313 0.094-1.031 0.281-1.156 0.531-0.094 0.156-0.063 0.5-0.063 0.813v11.375c0 0.5-0.094 1.406 0.156 1.625 0.156 0.219 0.563 0.156 1 0.156h10.469c1.313 0 2.188-0.281 2.938-0.875 0.719-0.531 1.25-1.313 1.5-2.281 0.281-1.125 0.031-2.281-0.438-3.094-0.906-1.531-2.875-2.625-5.219-1.781zM16.844 9.875c-0.5 0.031-0.438 0.5-0.438 1.063-0.063 0.906-0.031 1.844-0.063 2.656-0.063 1.688 0 3.563-0.094 5.281-0.031 1.188 0.063 2.219 0.125 3.438 0.031 0.594-0.031 1.281 0.531 1.25 0.5-0.031 0.438-0.531 0.469-1.063 0.063-0.969 0.156-1.969 0.156-2.875 0.031-1.563-0.094-3.219-0.094-4.781 0-1.156-0.031-2.406-0.094-3.594-0.031-0.688 0.094-1.438-0.5-1.375zM15.375 10.688c-0.438 0.063-0.344 0.5-0.344 1.031-0.031 0.813-0.063 1.75-0.063 2.469 0 1.094 0 2.094-0.063 3.281-0.063 1.688 0 3.219 0.063 4.875 0.031 0.594 0 1.219 0.438 1.25 0.594 0.031 0.5-0.688 0.5-1.281 0.094-1.625 0.188-3.219 0.125-4.875-0.094-1.594-0.031-3.313-0.125-4.969 0-0.313 0.063-1.375-0.063-1.594-0.125-0.188-0.375-0.219-0.469-0.188zM11.125 11.656c-0.344 0.063-0.281 0.563-0.281 1.031 0 1.719-0.094 3.281-0.156 4.969-0.031 0.719-0.063 1.406-0.063 2 0.031 0.969 0.156 2.156 0.219 3.156 0 0.344 0 0.781 0.344 0.781 0.438 0 0.375-0.719 0.406-1.156 0.031-0.531 0.063-1.031 0.094-1.5 0.156-2-0.031-4-0.063-6.094 0-0.813-0.063-1.469-0.063-2.313 0-0.5-0.031-0.938-0.438-0.875zM12.5 11.844c-0.344 0.094-0.281 0.625-0.281 1.094 0 1.031-0.063 1.875-0.094 2.906-0.031 1.25-0.094 2.688-0.094 3.813 0 0.938 0.125 2.188 0.188 3.188 0.031 0.406 0.031 0.719 0.375 0.719 0.406 0.031 0.375-0.406 0.406-0.781 0.094-1.063 0.188-2.094 0.188-3.094 0.031-0.594 0-1.281-0.031-1.938-0.063-1.625-0.094-3.188-0.156-4.875-0.031-0.594 0.063-1.156-0.5-1.031zM9.75 11.938c-0.344 0.063-0.281 0.438-0.281 0.844-0.031 0.75-0.063 1.594-0.063 2.25-0.063 1.938-0.219 4-0.063 5.938 0 0.406 0.063 0.875 0.094 1.406 0.031 0.469-0.063 1.219 0.375 1.188 0.313 0 0.313-0.406 0.344-0.75 0.063-1.063 0.188-2.094 0.219-3.094 0.031-0.625-0.031-1.281-0.063-1.938-0.063-1.563-0.094-3.188-0.156-4.813-0.031-0.469 0.031-1.094-0.406-1.031zM13.906 12.094c-0.344 0.094-0.281 0.469-0.313 0.906-0.031 2.719-0.219 5.438-0.063 8.094 0 0.406 0.031 0.906 0.063 1.438 0.031 0.5-0.031 1.094 0.469 1.063 0.281-0.031 0.375-0.313 0.406-0.719 0.031-1.094 0.156-2.219 0.156-3.219 0-1.188-0.063-2.5-0.094-3.781-0.031-0.875-0.063-1.938-0.094-2.844-0.031-0.344 0.031-0.719-0.125-0.844-0.094-0.125-0.344-0.156-0.406-0.094zM8.344 12.563c-0.25 0.031-0.219 0.281-0.219 0.625-0.063 1.844-0.125 3.25-0.188 5.063-0.031 0.469-0.063 0.969-0.063 1.406 0.031 1 0.125 1.781 0.188 2.781 0.031 0.406-0.031 1.156 0.375 1.156 0.313-0.031 0.281-0.5 0.281-0.813 0.094-1.063 0.25-2.094 0.25-3.125 0-0.531-0.031-1.156-0.063-1.75-0.063-1.5-0.125-2.969-0.188-4.469 0-0.375 0.031-0.969-0.375-0.875zM7 13.844c-0.313 0.063-0.25 0.844-0.281 1.25-0.063 1.406-0.094 2.344-0.156 3.75-0.063 1.313 0.063 2.469 0.156 3.719 0.031 0.406 0 1 0.313 1 0.313 0.031 0.281-0.5 0.313-0.813 0.031-0.406 0.063-0.719 0.063-1.031 0.063-0.719 0.188-1.406 0.188-2.031 0-0.375-0.063-0.938-0.094-1.438-0.063-1.281-0.125-2.406-0.188-3.625-0.031-0.406 0.031-0.813-0.313-0.781zM4.469 15.844c-0.063-0.031-0.219-0.094-0.25 0-0.156 0.063-0.125 0.625-0.156 0.938-0.031 0.344-0.063 0.688-0.094 0.969-0.031 0.656-0.156 1.281-0.156 1.969 0 0.625 0.094 1.313 0.156 1.969 0.031 0.281 0.063 0.625 0.094 0.969 0.031 0.25 0 0.844 0.281 0.813 0.219 0 0.219-0.531 0.219-0.813 0.031-0.375 0.063-0.688 0.094-1 0.063-0.625 0.188-1.344 0.219-1.938 0-0.344-0.063-0.656-0.094-1-0.063-0.656-0.125-1.313-0.188-1.938-0.031-0.344-0.031-0.656-0.125-0.938zM2.906 15.938c-0.156 0.063-0.156 0.688-0.156 0.938-0.031 0.344-0.063 0.656-0.094 0.969-0.063 0.625-0.188 1.219-0.156 1.906 0 0.875 0.156 1.875 0.25 2.813 0.031 0.219-0.031 0.813 0.25 0.781 0.188-0.031 0.188-0.531 0.219-0.813 0.031-0.375 0.063-0.688 0.094-0.969 0.063-0.625 0.188-1.219 0.188-1.875 0-0.688-0.125-1.25-0.188-1.906-0.031-0.313-0.063-0.594-0.094-0.969-0.031-0.281 0-1-0.313-0.875zM5.625 16.031c-0.25 0.063-0.219 0.531-0.25 0.844 0 0.344-0.031 0.688-0.063 0.969-0.031 0.656-0.156 1.188-0.156 1.875 0 0.625 0.094 1.281 0.156 1.969 0.031 0.313 0.063 0.625 0.063 1.031 0.031 0.313 0.031 0.781 0.25 0.813 0.313 0.031 0.281-0.406 0.344-0.781 0.063-0.781 0.094-1.344 0.156-2.031 0.031-0.344 0.094-0.656 0.094-1.031 0-0.594-0.125-1.188-0.188-1.781-0.031-0.281-0.031-0.594-0.063-0.938s0-1-0.344-0.938zM1.531 16.563c-0.094 0.5-0.125 1.031-0.188 1.563s-0.188 1.063-0.188 1.594c0.031 0.5 0.125 1.094 0.188 1.625 0.031 0.219 0.063 0.469 0.094 0.781 0.031 0.188 0.031 0.688 0.219 0.688 0.094 0 0.125-0.063 0.156-0.281 0.094-0.719 0.156-1.344 0.25-2 0.031-0.281 0.094-0.531 0.094-0.813s-0.063-0.563-0.094-0.844-0.125-1.031-0.219-1.625c-0.031-0.25 0-0.906-0.313-0.688zM0.469 17.719c-0.063-0.031-0.188-0.063-0.188 0.031-0.063 0.25-0.125 0.625-0.156 0.969-0.031 0.313-0.125 0.688-0.125 1 0 0.281 0.094 0.688 0.156 1.031 0 0.125 0.031 0.313 0.063 0.531 0.031 0.156 0.031 0.406 0.188 0.406 0.188-0.031 0.219-0.719 0.25-0.938 0.063-0.344 0.156-0.75 0.156-1.031 0-0.344-0.094-0.688-0.156-1.031s-0.063-0.688-0.188-0.969z"></path>
</svg>